<?xml version="1.0" encoding="UTF-8"?>
<svg id="Layer_1" data-name="Layer 1" xmlns="http://www.w3.org/2000/svg" viewBox="0 0 133.53 104.36">
  <defs>
    <style>
      .cls-1 {
        font-size: 38.84px;
      }

      .cls-1, .cls-2, .cls-3 {
        fill: #fff;
      }

      .cls-1, .cls-3 {
        font-family: Poppins-SemiBold, Poppins;
        font-weight: 600;
      }

      .cls-4 {
        fill: #020202;
      }

      .cls-3 {
        font-size: 13px;
        letter-spacing: -.04em;
      }
    </style>
  </defs>
  <g>
    <path class="cls-2" d="m123.31,67.55c-2.17-17.18-4.34-34.36-6.51-51.53-1.17-9.25-9.99-15.53-19.12-13.6L21.73,18.48c-7.75,1.64-13.12,8.72-12.61,16.62.78,12.12,1.56,24.24,2.33,36.36.54,8.46,7.61,15.02,16.09,14.92,17.21-.19,34.42-.38,51.62-.57h0c4.12,5.36,8.23,10.73,12.35,16.09v-16.23c5.38-.06,10.77-.12,16.15-.18,9.53-.11,16.84-8.49,15.64-17.94Z"/>
    <path class="cls-4" d="m118.68,65.87c-2.01-15.59-4.03-31.19-6.04-46.78-1.08-8.4-9.27-14.1-17.73-12.35L24.45,21.32c-7.19,1.49-12.17,7.91-11.7,15.09.72,11,1.44,22,2.16,33,.5,7.68,7.06,13.63,14.92,13.55,16.27-.18,32.54-.35,48.82-.53l9.2,11.37v-11.47c5.44-.06,10.87-.12,16.31-.18,8.84-.1,15.62-7.71,14.51-16.29Z"/>
  </g>
  <g>
    <text class="cls-3" transform="translate(52.89 68.58)"><tspan x="0" y="0">STANDS</tspan></text>
    <text class="cls-1" transform="translate(19.89 56.97)"><tspan x="0" y="0">APM</tspan></text>
  </g>
</svg>